<?xml version="1.0" standalone="yes"?>
<svg xmlns="http://www.w3.org/2000/svg" width="1800" height="1800">
<path style="fill:#1f8dfb; stroke:none;" d="M0 0L0 1800L1800 1800L1800 0L0 0z"/>
<path style="fill:#ffffff; stroke:none;" d="M1384 1165C1363.05 1166.67 1341.49 1173.89 1321 1178.5C1277.37 1188.32 1233.68 1197.93 1190 1207.58C1172.66 1211.41 1155.37 1215.54 1138 1219.2C1129.19 1221.05 1118.3 1221.81 1111.02 1227.53C1101.63 1234.9 1102 1246.19 1102 1257L1102 1320C1102 1329.53 1100.52 1340.64 1106.11 1348.99C1114.26 1361.15 1129.21 1360 1142 1360L1231 1360C1268.66 1360 1306.43 1360.68 1344 1359.04C1367.14 1358.03 1389.96 1358.88 1413 1355.57C1457.19 1349.23 1503.55 1326.53 1533.42 1292.99C1545.7 1279.2 1557.1 1265.19 1566.14 1249C1578.36 1227.09 1586.7 1202.79 1590.56 1178C1592.91 1162.92 1593.05 1147.21 1594.09 1132C1596.99 1089.63 1595 1046.5 1595 1004L1595 812C1595 776.99 1597.57 740.804 1593.83 706C1591.36 682.957 1586.98 659.904 1583.42 637C1576.66 593.358 1570.16 549.683 1563.73 506C1561.12 488.325 1558.28 470.684 1555.73 453C1554.19 442.341 1552 431.795 1552 421C1583.11 416.983 1608.18 398.786 1617.13 368C1619.41 360.155 1619 352.074 1619 344L1619 311L1619 197L1619 147C1619 130.717 1620.17 117.586 1607.91 105.04C1601.45 98.4294 1594.16 95.0106 1585 95C1582.1 94.9966 1577.34 94.1819 1575.74 97.3179C1573.01 102.686 1575 113.065 1575 119C1575 132.663 1574.84 146.338 1575 160C1575.06 165.005 1576.44 169.988 1575.89 175C1574.97 183.367 1565.82 188.641 1558 186.196C1547.61 182.95 1550 171.604 1550 163L1550 115C1550 110.487 1551.9 100.294 1548.97 96.6034C1546.74 93.7836 1540.15 95 1537 95L1503 95L1503 132L1503 163C1503 167.674 1503.94 173.587 1502.14 177.999C1498.06 188.038 1482.52 190.446 1477.32 179.985C1474.85 175.017 1477 167.425 1477 162L1477 117C1477 112.003 1477.09 106.997 1477 102.001C1476.96 100.019 1477.14 97.4054 1475.4 96.0277C1473.51 94.532 1470.24 95.0046 1468 95L1450 95C1444.85 95 1436 93.2985 1431.32 95.6034C1429.21 96.6406 1429.11 98.9307 1429.02 101.005C1428.79 106.316 1429 111.683 1429 117C1429 130.663 1428.84 144.338 1429 158C1429.07 163.924 1430.94 170.091 1429.72 176C1428.51 181.84 1422.88 186.468 1417 186.88C1402.91 187.868 1402.52 174.082 1403.71 164C1405.52 148.704 1404 132.402 1404 117C1404 111.552 1405.78 102.258 1403.26 97.3179C1401.35 93.5807 1393.45 94.8722 1390 95.0402C1374.93 95.7738 1362.59 109.034 1358.92 123C1357.17 129.685 1358 137.146 1358 144L1358 180L1358 299L1358 339C1358 352.143 1357.74 364.535 1362.61 377C1369.27 394.004 1382.28 407.746 1399 415.138C1403.47 417.116 1408.21 418.72 1413 419.714C1418.22 420.797 1424.35 420.362 1424.94 427.005C1425.81 436.83 1422.86 447.322 1421.43 457C1419.06 472.994 1416.58 488.985 1414.27 505C1408.46 545.348 1402.54 585.691 1396.57 626C1392.71 652.111 1386.89 678.662 1385.09 705C1384.23 717.554 1385 730.416 1385 743L1385 818L1385 1043L1385 1119C1385 1134.28 1385.92 1149.84 1384 1165M724 1360C724.102 1396.99 749.842 1427.6 785 1436.99C803.99 1442.05 826.463 1439 846 1439L963 1439L1003 1439C1010.07 1439 1018.15 1440.07 1025 1438.02C1036.15 1434.69 1046.2 1425.02 1049.9 1414C1051.69 1408.64 1051 1402.57 1051 1397L980 1397C970.235 1397 958.72 1395.84 959.133 1383C959.545 1370.19 971.273 1370 981 1370L1051 1370L1051 1323L980 1323C970.906 1323 959.57 1321.79 959.134 1310C958.685 1297.85 969.562 1296 979 1296L1051 1296L1051 1248L980 1248C970.279 1248 958.659 1246.84 959.134 1234C959.57 1222.21 970.906 1221 980 1221L1051 1221C1051 1215.8 1051.64 1210.1 1050.47 1205C1047.8 1193.38 1037.19 1183.23 1026 1179.77C1018.23 1177.38 1010.02 1178 1002 1178L967 1178L848 1178C828.771 1178 806.819 1175.1 788 1179.45C774.268 1182.63 761.848 1189.54 751 1198.38C741.134 1206.41 733.092 1219.01 729.004 1231C727.241 1236.17 726.812 1246.46 719.982 1247.58C713.22 1248.68 702.641 1243.54 696 1241.87C675.964 1236.84 655.949 1231.64 636 1226.28C567.861 1207.98 499.444 1190.26 431 1173.13C409.293 1167.69 387.633 1161.99 366 1156.27C359.908 1154.65 346.575 1153.77 343.179 1147.87C340.753 1143.65 342 1136.69 342 1132L342 1095L342 960L342 764L342 715C342 709.154 340.366 700.072 344.769 695.393C347.786 692.186 354.015 693.089 358 692.985C368.183 692.72 378.88 691.908 389 690.714C406.883 688.604 425.038 688.142 443 686.911C470.672 685.013 498.326 682.808 526 680.911C643.37 672.863 760.629 663.128 878 655.089C933.301 651.302 988.819 648.443 1044 643.17C1069.58 640.725 1095.36 639.668 1121 637.911C1171.68 634.436 1222.32 630.401 1273 626.911C1284.67 626.106 1296.33 624.889 1308 624.089C1322.15 623.12 1336.01 624.258 1343.05 609C1344.2 606.505 1345.28 603.716 1345.74 601C1347.83 588.648 1346 574.528 1346 562C1346 545.349 1347.82 527.526 1345.82 511C1344.68 501.597 1339.24 491.665 1330 488.256C1320.29 484.674 1309.16 486 1299 486L1245 486L1057 486L505 486L374 486C355.794 486 337.161 484.846 319 486.089C292.881 487.878 266.411 495.103 243 506.809C190.892 532.862 153.242 581.806 139.374 638C133.433 662.074 134.998 684.613 135 709L135 809L135 1088C135 1120.9 132.119 1155.35 136.184 1188C141.925 1234.12 167.315 1279.29 202 1309.71C236.735 1340.18 279.522 1355.43 325 1359.83C334.52 1360.75 344.437 1360 354 1360L409 1360L724 1360M651 793.439C644.427 794.466 637.985 796.349 632 799.259C612.161 808.904 598.14 828.066 595.289 850C593.855 861.037 595 872.875 595 884L595 942C595 963.497 591.224 988.793 599.873 1009C610.71 1034.32 638.042 1052.34 666 1048.71C692.222 1045.3 714.647 1025.71 721.105 1000C724.196 987.695 723 974.594 723 962L723 899C723 877.778 726.667 852.953 718.127 833C707.219 807.511 679.199 789.035 651 793.439M1087 794.439C1080.43 795.466 1073.99 797.349 1068 800.259C1048.16 809.904 1034.14 829.066 1031.29 851C1029.85 862.037 1031 873.875 1031 885L1031 943C1031 964.497 1027.22 989.792 1035.87 1010C1046.71 1035.32 1074.04 1053.34 1102 1049.71C1128.22 1046.3 1150.65 1026.71 1157.1 1001C1160.2 988.695 1159 975.594 1159 963L1159 900C1159 878.777 1162.67 853.953 1154.13 834C1143.22 808.511 1115.2 790.035 1087 794.439z"/>
</svg>
