<svg xmlns="http://www.w3.org/2000/svg" viewBox="0 0 1000 1000">
  <!-- 蓝色圆角背景 -->
  <rect width="1000" height="1000" rx="200" ry="200" fill="#1f8dfb"/>
  <!-- 再次微调：向上移动 5% (50个单位)，y 由 10 变为 -40 -->
  <g transform="translate(-10, -40) scale(1.05)">
    <path fill="#ffffff" d="m757.43184,682.3054c-54.09069,11.82964 -76.25352,16.70455 -98.41128,21.59975c-8.79614,1.94286 -17.56692,4.03791 -26.37828,5.89453c-4.46909,0.93846 -9.99331,1.32399 -13.68627,4.2256c-4.76331,3.73861 -4.57562,9.46574 -4.57562,14.94938l0,31.9583c0,4.83433 -0.75077,10.47015 2.0849,14.70589c4.13429,6.16846 11.71804,5.58509 18.20609,5.58509l45.14744,0c19.10396,0 38.26372,0.34495 57.32203,-0.48698c11.73833,-0.51235 23.31434,-0.08116 35.00195,-1.76024c22.41647,-3.21612 45.93372,-14.73126 61.08601,-31.74525c6.22933,-6.99532 12.01226,-14.10223 16.59803,-22.31501c6.1989,-11.11439 10.42957,-23.44116 12.38765,-36.0165c1.1921,-7.6497 1.26311,-15.61899 1.79068,-23.33463c1.4711,-21.49323 0.46162,-43.37198 0.46162,-64.93115l0,-97.39673c0,-17.75968 1.3037,-36.11592 -0.59351,-53.77111c-1.25297,-11.68913 -3.47483,-23.38333 -5.28073,-35.00195c-3.42918,-22.13848 -6.72646,-44.2937 -9.98824,-66.45298c-1.32399,-8.96608 -2.76465,-17.91491 -4.0582,-26.88555c-0.7812,-5.40704 -1.89213,-10.75676 -1.89213,-16.23279c15.78131,-2.03772 28.49869,-11.2686 33.0388,-26.88555c1.15659,-3.97957 0.9486,-8.07886 0.9486,-12.17459l0,-16.74006l0,-57.82931l0,-25.36373c0,-8.25995 0.59351,-14.92098 -5.62568,-21.28524c-3.27699,-3.35339 -6.97503,-5.08766 -11.62166,-5.09304c-1.4711,-0.00172 -3.88572,-0.415 -4.69736,1.17581c-1.38486,2.7231 -0.37538,7.9881 -0.37538,10.99878c0,6.93089 0.40245,10.88093 0,20.79826c-0.40245,9.91733 -0.39723,13.75439 -7.07474,13.28857c-6.67751,-0.46582 -4.44543,-9.33831 -4.83266,-13.7029c-0.38723,-7.66417 0.18936,-29.873 -1.29696,-31.74515c-1.13122,-1.43041 -4.47416,-0.81336 -6.07208,-0.81336l-17.24734,0l0,18.76916c-0.38723,3.76895 0.47684,10.25355 0.33821,17.52565c0.25371,17.09671 -14.59951,13.28421 -12.97779,-0.92871l-0.54956,-24.20606c0,-2.53485 0.04565,-5.07427 0,-7.60861c-0.02029,-1.00542 0.07102,-2.33123 -0.81164,-3.0301c-0.95875,-0.75873 -2.61754,-0.51899 -3.75383,-0.52133l-9.13094,0c-2.61246,0 -7.10184,-0.86313 -9.47589,0.30609c-1.07035,0.52615 -1.12108,1.68785 -1.16673,2.74009c-0.11667,2.69414 -0.14881,14.33255 -0.01015,25.15204c0.13866,10.81949 -1.17848,18.09302 -6.0873,18.41016c-4.90881,0.31714 -5.55807,-6.72313 -5.82011,-19.95909c-0.26203,-13.23596 0.12849,-22.9675 -1.14985,-25.47349c-0.96889,-1.89579 -4.97636,-1.24064 -6.72646,-1.15542c-7.64463,0.37214 -13.9044,7.0987 -15.7661,14.1833c-0.88773,3.39113 -0.46669,7.17591 -0.46669,10.65277l0,18.26189l0,60.36568l0,20.29098c0,6.66711 -0.13189,12.95326 2.33854,19.27644c3.37845,8.6257 9.97809,15.59667 18.45972,19.34644c2.26752,1.00339 4.672,1.81706 7.10184,2.32129c2.64797,0.54938 5.75757,0.32871 6.05686,3.69854c0.44133,4.98397 -1.05513,10.3063 -1.78053,15.2157c-1.20224,8.11335 -2.46028,16.22518 -3.63209,24.34918c-2.94727,20.46752 -5.95033,40.9325 -8.97876,61.38023c-1.95808,13.24545 -4.91042,26.7141 -5.82351,40.0747c-0.43626,6.36833 -0.04565,12.89289 -0.04565,19.27644l0,38.0456l0,114.13679l0,38.55287c0,7.75116 0.46669,15.64435 -0.50727,23.33463m-334.80125,98.91855c0.05174,18.76409 13.10899,34.29176 30.94375,39.05507c9.63315,2.56681 21.03313,1.01962 30.94375,1.01962l59.35113,0l20.29098,0c3.58643,0 7.68521,0.54278 11.16004,-0.49713c5.65611,-1.68922 10.75422,-6.59457 12.63114,-12.18474c0.90802,-2.71899 0.558,-5.79815 0.558,-8.62367l-36.0165,0c-4.95354,0 -10.7948,-0.58844 -10.5853,-7.10184c0.209,-6.49819 6.15831,-6.59457 11.09257,-6.59457l35.50922,0l0,-23.84191l-36.0165,0c-4.61316,0 -10.36362,-0.6138 -10.58479,-6.59457c-0.22777,-6.16339 5.28986,-7.10184 10.07752,-7.10184l36.52377,0l0,-24.34918l-36.0165,0c-4.93122,0 -10.82575,-0.58844 -10.58479,-7.10184c-0.22117,-5.98077 5.97164,-6.59457 10.58479,-6.59457l36.0165,0c0,-2.63783 0.32466,-5.52929 -0.26886,-8.11639c-1.35442,-5.89453 -6.73661,-11.04337 -12.41301,-12.79854c-3.94152,-1.21239 -8.10625,-0.89788 -12.17459,-0.89788l-17.75461,0l-60.36568,0c-9.75438,0 -20.89008,-1.4711 -30.43648,0.73555c-6.9659,1.61313 -13.26625,5.1184 -18.76916,9.60271c-5.00477,4.07342 -9.08427,10.46508 -11.15801,16.5473c-0.89433,2.62261 -1.11195,7.84247 -4.57663,8.41061c-3.43019,0.558 -8.79665,-2.04939 -12.16546,-2.89654c-10.16375,-2.55159 -20.31686,-5.18942 -30.43648,-7.90841c-34.56519,-9.28313 -69.27139,-18.27203 -103.9913,-26.96165c-11.01141,-2.75957 -21.99898,-5.65104 -32.97285,-8.55265c-3.09032,-0.82178 -9.85381,-1.26819 -11.57651,-4.26111c-1.23065,-2.1407 -0.59808,-5.67133 -0.59808,-8.05045l0,-18.76916l0,-68.48207l0,-99.42583l0,-24.85646c0,-2.96553 -0.82889,-7.5726 1.40464,-9.94613c1.53045,-1.62683 4.69026,-1.16876 6.71175,-1.22152c412.75921,-29.70042 438.4476,-31.74727 464.15628,-33.51766c5.91989,-0.40836 11.83472,-1.02571 17.75461,-1.43153c7.17794,-0.49155 14.20876,0.08573 17.77998,-7.65427c0.58337,-1.26565 1.13122,-2.68044 1.36457,-4.0582c1.0602,-6.26586 0.13189,-13.42857 0.13189,-19.78371c0,-8.44663 0.92324,-17.48779 -0.09131,-25.87101c-0.57829,-4.7699 -3.33787,-9.80815 -8.02508,-11.53745c-4.92564,-1.81706 -10.5716,-1.14441 -15.72551,-1.14441l-27.39283,0l-95.36763,0l-280.01559,0l-66.45298,0c-9.23544,0 -18.68749,-0.58539 -27.9001,0.04515c-13.24951,0.90751 -26.67707,4.57257 -38.55287,10.51073c-26.43307,13.21603 -45.53196,38.04407 -52.56684,66.54986c-3.01372,12.21213 -2.21983,23.64559 -2.21882,36.0165l0,50.72746l0,141.52962c0,16.68934 -1.46146,34.16495 0.60061,50.72746c2.91226,23.39551 15.79197,46.3091 33.38679,61.74039c17.62018,15.45666 39.32494,23.1926 62.39478,25.4246c4.82925,0.46669 9.8599,0.08624 14.71096,0.08624l27.9001,0l159.79151,0m-37.03105,-287.40202c-3.33432,0.52097 -6.60218,1.47617 -9.63822,2.95234c-10.06382,4.89266 -17.17632,14.61306 -18.62256,25.73962c-0.72743,5.59879 -0.1466,11.60391 -0.1466,17.24734l0,29.42193c0,10.90488 -1.91547,23.7369 2.47195,33.9874c5.49734,12.84419 19.36217,21.98528 33.54455,20.14388c13.30176,-1.72981 24.67739,-11.66732 27.95337,-24.70935c1.56799,-6.24201 0.96129,-12.88782 0.96129,-19.27644l0,-31.9583c0,-10.76538 1.86018,-23.35847 -2.47195,-33.48013c-5.53335,-12.92992 -19.74719,-22.30233 -34.05182,-20.06829m221.17174,0.50727c-3.33279,0.52097 -6.59964,1.47617 -9.63822,2.95234c-10.06433,4.89266 -17.17632,14.61306 -18.62205,25.73962c-0.73048,5.59879 -0.14711,11.60391 -0.14711,17.24734l0,29.42193c0,10.90488 -1.9175,23.73639 2.47043,33.9874c5.49886,12.84419 19.36267,21.98528 33.54607,20.14388c13.30074,-1.72981 24.67891,-11.66732 27.95083,-24.70935c1.57255,-6.24201 0.96382,-12.88782 0.96382,-19.27644l0,-31.9583c0,-10.76589 1.8617,-23.35847 -2.47043,-33.48013c-5.53437,-12.92992 -19.7482,-22.30233 -34.05335,-20.06829z"/>
  </g>
</svg>
